<svg width="41" height="39" viewBox="0 0 41 39" fill="none" xmlns="http://www.w3.org/2000/svg">
<path d="M12.8515 37.6295C13.0414 37.8638 13.3269 38 13.6286 38C13.9302 38 14.2157 37.8638 14.4056 37.6295L39.777 6.30955C40.0743 5.94256 40.0743 5.41762 39.777 5.05063L36.7959 1.37054C36.6061 1.13622 36.3207 1.00007 36.0191 1C35.7175 0.99993 35.432 1.13595 35.2421 1.37018L13.628 28.0267L5.75742 18.3346C5.56741 18.1006 5.28198 17.9648 4.98054 17.965C4.67911 17.9651 4.39384 18.1013 4.20411 18.3355L1.22296 22.0156C0.925679 22.3826 0.925679 22.9075 1.22296 23.2745L12.8515 37.6295Z" fill="#0C9C1B" stroke="#0C9C1B" stroke-width="2" stroke-linejoin="round"/>
</svg>
