<svg width="23" height="23" viewBox="0 0 23 23" fill="none" xmlns="http://www.w3.org/2000/svg">
<path d="M12.6687 10.3313H18.5122L16.7591 8.57825L18.4187 6.9187L23 11.5L18.4187 16.0813L16.7591 14.4217L18.5122 12.6687H12.6687V18.5122L14.4217 16.7591L16.0813 18.4187L11.5 23L6.9187 18.4187L8.57825 16.7591L10.3313 18.5122V12.6687H4.4878L6.24085 14.4217L4.5813 16.0813L0 11.5L4.5813 6.9187L6.24085 8.57825L4.4878 10.3313H10.3313V4.4878L8.57825 6.24085L6.9187 4.5813L11.5 0L16.0813 4.5813L14.4217 6.24085L12.6687 4.4878V10.3313Z" fill="#5F5F5F"/>
</svg>
