<svg width="25" height="29" viewBox="0 0 25 29" fill="none" xmlns="http://www.w3.org/2000/svg">
<path d="M19.0084 21.9286H5.84874V12.7357C5.84874 9.20001 8.77311 6.37144 12.4286 6.37144C16.084 6.37144 19.0084 9.20001 19.0084 12.7357V21.9286ZM21.9328 20.5143V12.7357C21.9328 8.39387 18.8037 4.75915 14.6218 3.79744V2.83572C14.6218 2.27309 14.3908 1.73349 13.9795 1.33565C13.5681 0.937801 13.0103 0.714294 12.4286 0.714294C11.8469 0.714294 11.289 0.937801 10.8777 1.33565C10.4664 1.73349 10.2353 2.27309 10.2353 2.83572V3.79744C6.03882 4.75915 2.92437 8.39387 2.92437 12.7357V20.5143L0 23.3429V24.7572H24.8571V23.3429L21.9328 20.5143ZM12.4286 29C13.2042 29 13.948 28.702 14.4964 28.1715C15.0448 27.6411 15.3529 26.9216 15.3529 26.1714H9.5042C9.5042 26.9216 9.8123 27.6411 10.3607 28.1715C10.9092 28.702 11.653 29 12.4286 29Z" fill="#9D9D9D"/>
</svg>
